<?xml version="1.0" encoding="UTF-8" standalone="no"?>
<!DOCTYPE svg PUBLIC "-//W3C//DTD SVG 1.1//EN" "http://www.w3.org/Graphics/SVG/1.1/DTD/svg11.dtd">
<svg width="100%" height="100%" viewBox="0 0 1024 1024" version="1.1" xmlns="http://www.w3.org/2000/svg" xmlns:xlink="http://www.w3.org/1999/xlink" xml:space="preserve" xmlns:serif="http://www.serif.com/" style="fill-rule:evenodd;clip-rule:evenodd;stroke-linejoin:round;stroke-miterlimit:2;">
    <g id="Layer-2" serif:id="Layer 2">
        <g transform="matrix(4.16261,0,0,-4.16261,367.367,532.537)">
            <path d="M0,0C0,-7.994 -6.479,-14.473 -14.479,-14.473C-22.475,-14.473 -28.958,-7.994 -28.958,0C-28.958,7.994 -22.475,14.479 -14.479,14.479C-6.479,14.479 0,7.994 0,0" style="fill:rgb(65,64,66);fill-rule:nonzero;"/>
        </g>
        <g transform="matrix(4.16261,0,0,-4.16261,656.641,532.537)">
            <path d="M0,0C0,-7.994 6.477,-14.473 14.471,-14.473C22.473,-14.473 28.95,-7.994 28.95,0C28.95,7.994 22.473,14.479 14.471,14.479C6.477,14.479 0,7.994 0,0" style="fill:rgb(65,64,66);fill-rule:nonzero;"/>
        </g>
    </g>
</svg>
