<?xml version="1.0" encoding="UTF-8" standalone="no"?>
<!DOCTYPE svg PUBLIC "-//W3C//DTD SVG 1.1//EN" "http://www.w3.org/Graphics/SVG/1.1/DTD/svg11.dtd">
<svg width="100%" height="100%" viewBox="0 0 1024 1024" version="1.1" xmlns="http://www.w3.org/2000/svg" xmlns:xlink="http://www.w3.org/1999/xlink" xml:space="preserve" xmlns:serif="http://www.serif.com/" style="fill-rule:evenodd;clip-rule:evenodd;stroke-linejoin:round;stroke-miterlimit:2;">
    <g id="Layer-1" serif:id="Layer 1">
        <g transform="matrix(4.16261,0,0,-4.16261,784.071,718.723)">
            <path d="M0,0L-1.121,-16.063C-1.256,-17.999 -2.796,-19.54 -4.732,-19.679L-43.287,-22.43C-43.381,-22.437 -43.475,-22.44 -43.568,-22.44C-45.484,-22.44 -47.137,-21.034 -47.42,-19.11L-49.631,-4.116L-81.09,-4.116L-83.301,-19.11C-83.598,-21.128 -85.402,-22.579 -87.434,-22.43L-125.989,-19.679C-127.925,-19.54 -129.465,-17.999 -129.6,-16.063L-130.721,0L-163.268,3.138C-163.253,-0.36 -163.208,-4.192 -163.208,-4.955C-163.208,-39.329 -119.603,-55.851 -65.427,-56.041L-65.294,-56.041C-11.118,-55.851 32.472,-39.329 32.472,-4.955C32.472,-4.178 32.519,-0.362 32.535,3.138L0,0Z" style="fill:rgb(71,140,191);fill-rule:nonzero;"/>
        </g>
        <g transform="matrix(4.16261,0,0,-4.16261,104.699,427.387)">
            <path d="M0,0L0,-59.041C0.108,-59.042 0.216,-59.046 0.323,-59.056L36.519,-62.546C38.415,-62.729 39.901,-64.255 40.033,-66.155L41.149,-82.133L72.723,-84.386L74.898,-69.639C75.18,-67.727 76.82,-66.31 78.754,-66.31L116.942,-66.31C118.875,-66.31 120.515,-67.727 120.797,-69.639L122.972,-84.386L154.547,-82.133L155.662,-66.155C155.795,-64.255 157.28,-62.73 159.176,-62.546L195.358,-59.056C195.465,-59.046 195.572,-59.042 195.68,-59.041L195.68,-54.33L195.695,-54.325L195.695,0C200.792,6.416 205.618,13.494 209.316,19.449C203.665,29.069 196.741,37.666 189.34,45.631C182.476,42.176 175.809,38.262 169.512,34.097C166.361,37.229 162.812,39.791 159.326,42.469C155.901,45.22 152.041,47.237 148.38,49.587C149.47,57.704 150.009,65.695 150.226,74.035C140.78,78.789 130.707,81.941 120.518,84.205C116.45,77.368 112.73,69.964 109.49,62.726C105.648,63.368 101.788,63.606 97.923,63.652L97.923,63.658C97.896,63.658 97.871,63.652 97.848,63.652C97.824,63.652 97.799,63.658 97.775,63.658L97.775,63.652C93.903,63.606 90.046,63.368 86.203,62.726C82.965,69.964 79.247,77.368 75.173,84.205C64.989,81.941 54.915,78.789 45.47,74.035C45.686,65.695 46.225,57.704 47.318,49.587C43.65,47.237 39.795,45.22 36.369,42.469C32.888,39.791 29.333,37.229 26.181,34.097C19.884,38.262 13.219,42.176 6.353,45.631C-1.048,37.666 -7.968,29.069 -13.621,19.449C-9.178,12.475 -4.413,5.466 -0,0Z" style="fill:rgb(71,140,191);fill-rule:nonzero;"/>
        </g>
    </g>
</svg>
