<?xml version="1.0" encoding="UTF-8" standalone="no"?>
<!DOCTYPE svg PUBLIC "-//W3C//DTD SVG 1.1//EN" "http://www.w3.org/Graphics/SVG/1.1/DTD/svg11.dtd">
<svg width="100%" height="100%" viewBox="0 0 1024 1024" version="1.1" xmlns="http://www.w3.org/2000/svg" xmlns:xlink="http://www.w3.org/1999/xlink" xml:space="preserve" xmlns:serif="http://www.serif.com/" style="fill-rule:evenodd;clip-rule:evenodd;stroke-linejoin:round;stroke-miterlimit:2;">
    <g id="Layer-2" serif:id="Layer 2">
        <g transform="matrix(4.16261,0,0,-4.16261,511.993,626.22)">
            <path d="M0,0C-3.878,0 -7.021,2.858 -7.021,6.381L-7.021,26.462C-7.021,29.982 -3.878,32.843 0,32.843C3.878,32.843 7.028,29.982 7.028,26.462L7.028,6.381C7.028,2.858 3.878,0 0,0" style="fill:white;fill-rule:nonzero;"/>
        </g>
        <g transform="matrix(4.16261,0,0,-4.16261,389.215,527.151)">
            <path d="M0,0C0,-12.052 -9.765,-21.815 -21.813,-21.815C-33.855,-21.815 -43.623,-12.052 -43.623,0C-43.623,12.044 -33.855,21.802 -21.813,21.802C-9.765,21.802 0,12.044 0,0" style="fill:white;fill-rule:nonzero;"/>
        </g>
        <g transform="matrix(4.16261,0,0,-4.16261,634.787,527.151)">
            <path d="M0,0C0,-12.052 9.765,-21.815 21.815,-21.815C33.856,-21.815 43.623,-12.052 43.623,0C43.623,12.044 33.856,21.802 21.815,21.802C9.765,21.802 0,12.044 0,0" style="fill:white;fill-rule:nonzero;"/>
        </g>
    </g>
</svg>
